<?xml version="1.0" encoding="utf-8"?>
<!-- Generator: Adobe Illustrator 18.1.1, SVG Export Plug-In . SVG Version: 6.00 Build 0)  -->
<svg version="1.1" id="Layer_1" xmlns="http://www.w3.org/2000/svg" xmlns:xlink="http://www.w3.org/1999/xlink" x="0px" y="0px"
	 viewBox="0 0 50 50" enable-background="new 0 0 50 50" xml:space="preserve">
<path d="M26.1,37.1c0-0.8,0-1.4,0-2.1c0-8.9,0.1-17.9,0.1-26.8c0-0.7,0.1-1.4,0.1-2.1c0.3-2.6,2-4.1,4.5-4c2.4,0,4.1,1.7,4.3,4.1
	c0.1,1.3,0,2.6,0,3.9c0,7.2,0,14.4,0,21.6c0,6.1-3.6,10.2-9.6,10.6c-5.5,0.5-10-3.2-11-8.9c0-0.3,0-0.2-0.1-0.6
	c-0.1-1.2-1.7-1.2-1.7,0c0,0.9,0.1,1.8,0.3,2.7c1.5,4.9,6.8,8.9,11.8,8.8c5.6-0.1,10.4-3.8,11.8-9c0.3-1.2,0.4-2.5,0.4-3.8
	c0-9.1,0-18.3-0.1-27.4c0-1.5,0.5-1.9,2-1.9c1.4,0,1.7,0.5,1.7,1.8c0,9.5,0,19,0,28.6c0,7.8-6.4,14.7-14.2,15.3
	c-8.4,0.6-15.5-4.7-17.1-12.9c-0.2-0.8-0.2-1.7-0.2-2.6c0-2.6,1.6-4.4,3.9-4.5c2.3-0.2,4.5,1.6,5,4c0.1,0.8,0.2,1.6,0.4,2.4
	c0.9,3,4.2,4.9,7.4,4.5c3.3-0.5,5.6-3.1,5.6-6.4c0-8.2,0.1-16.3,0-24.5c0-1.3-1.7-1.3-1.7,0c0,8.4-0.1,16.8-0.1,25.2
	C29.8,34.6,29,36.6,26.1,37.1z"/>
</svg>
